# xmcd
#
# Track frame offsets:
# 150
# 13092
# 26492
# 37297
# 51610
# 62185
# 74100
# 84082
# 95730
# 108310
# 123065
# 137335
# 148637
#
# Disc length: 2150 seconds
#
#
# Revision: 2
# Processed by: cddbd v1.5.1PL2 Copyright (c) Steve Scherf et al.
# Submitted via: FreeRIP 2.944 
#
DISCID=bc08640d
DTITLE=Johnny Horton - Johnny Horton's Greatest Hits
DYEAR=1987
DGENRE=Country
TTITLE0=North To Alaska
TTITLE1=Whispering Pines
TTITLE2=Johnny Reb
TTITLE3=The Mansion You Stole
TTITLE4=I'm Ready If You're Willing
TTITLE5=When It's Springtime In Alaska
TTITLE6=Honky Tonk Man
TTITLE7=The Battle Of New Orleans
TTITLE8=All For the Love Of A Girl
TTITLE9=Sink The Bismarck
TTITLE10=Comanche
TTITLE11=Jim Bridger
TTITLE12=Johnny Freedom
EXTD=Columbia 
EXTT0=
EXTT1=
EXTT2=
EXTT3=
EXTT4=
EXTT5=(It's Forty Below)
EXTT6=
EXTT7=
EXTT8=
EXTT9=
EXTT10=(The Brave Horse)
EXTT11=
EXTT12=
PLAYORDER=
